<?xml version="1.0" encoding="UTF-8"?>
<svg id="Layer_2" data-name="Layer 2" xmlns="http://www.w3.org/2000/svg" viewBox="0 0 768 1024">
  <defs>
    <style>
      .cls-1 {
        fill: none;
        stroke: #000;
        stroke-miterlimit: 10;
      }
    </style>
  </defs>
  <polygon class="cls-1" points="276.5 917.5 296.5 862.5 302.5 842.5 309.5 810.5 319 748.59 323.5 644.5 323.5 615.85 323.5 596.38 319 585.76 312.5 568.5 304.5 541.5 300 523.81 281.5 489.5 201.5 322.5 209.32 322.5 206.5 304.5 206.5 288.5 212.5 263.5 207.5 252.5 210.5 247.5 216.5 251.5 233.5 228.5 240.5 221.5 250.5 212.5 274.5 194.5 274.5 186.5 278.5 183.5 283.5 189.5 308.5 180.5 334.5 173.5 354.5 169.5 388.5 167.5 388.5 161.08 395.5 160.5 396.5 167.5 452.5 174.5 467.5 179.5 502.5 191.5 508.5 185.5 513.5 187.5 513.5 193.89 543.5 214.5 556.5 226.5 566.5 238.5 575.5 252.5 583.5 250.5 585.5 254.5 581.5 260.5 585.5 274.31 588.5 286.5 588.5 293.93 589.5 311.5 587.5 325.5 594.5 325.5 513.5 474.5 490.08 518 479.44 539 464.5 566.5 456.5 585.5 450.5 601.5 447.5 617.5 445.5 629.5 443.5 743.5 447.5 810.5 456.5 870.5 466.13 917.5 486.5 1000.5 301.53 1000.5 255.3 1000.5 276.5 917.5"/>
  <polyline class="cls-1" points="278.5 183.5 286.5 210.5 320 370.56 344.5 488.5 351.5 516.5 357.5 573.41 357.5 612.5 354.5 655.5 350.5 717.5 346.5 771.5 339.5 822.5 332.5 874.5 324.5 913.5 320 937.21 308.5 979.5 305.5 989.5 301.53 1000.5"/>
  <polyline class="cls-1" points="263.62 1000.5 278.5 954.51 301.5 871.5 320 791.56 326.5 735.5 330.5 695.5 334.5 658.5 334.5 608 334.5 576.74 318 518.21 210.5 247.5"/>
  <polyline class="cls-1" points="294.88 1000.5 320 884.67 334.5 800.21 346.5 691.5 350.5 631.5 350.5 570.75 342.5 504.5 328.5 429.5 274.5 186.5"/>
  <line class="cls-1" x1="395.5" y1="160.5" x2="378.68" y2="1000.5"/>
  <polyline class="cls-1" points="388.5 167.5 378.68 645.91 367.5 909.5 364.71 1000.5"/>
  <polyline class="cls-1" points="502.5 191.5 438.5 475.5 421.5 552.5 414.5 617.5 414.5 653.89 414.5 705.77 414.5 746.34 414.5 825.48 418.5 907.5 420.5 926.5 423.5 969.5 426.56 1000.5"/>
  <polyline class="cls-1" points="435.5 997.5 430.5 954.5 423.5 870.5 419.5 819.5 419.5 699.11 422.5 601.5 435.5 512 473.5 351.5 513.5 193.89"/>
  <polyline class="cls-1" points="575.5 252.5 466.5 504.25 452.5 539.5 441.86 584 438.5 600.5 435.5 620.5 435.5 641.25 435.5 675.84 435.5 713.75 435.5 745.01 439.5 794.5 441.5 827.5 444.5 852.5 449.5 891.5 466.5 957.83 474.5 982.5"/>
  <polyline class="cls-1" points="585.5 254.5 568.5 290.5 546.5 333.5 520.5 394.5 466.5 518.88 451.5 562.5 443.86 592 439.5 630.5 439.5 657.21 439.5 680.16 439.5 739.35 439.5 756.64 441.5 778.5 443.5 794.5 447.5 834.5 449.5 852.5 455.5 888.5 483.1 1000.5"/>
  <path class="cls-1" d="m507.42,430.69l22-4.25.16-4-3.16-14-2-9-9-13.31-4-6.69-9-7-15-9-23-13-14-4-9-3.2-28.57-2.8h-46.43c-2,0-17,3-17,3l-18,4-22,8-14,8-13,12-8,6.37-7,13.63-4,5.99v12.01l-1,9,18.58,2.59"/>
  <polyline class="cls-1" points="321.92 527.13 316.42 527.44 307.42 526.44 309.42 519.44 311.42 513.44 319.92 506.18 325.42 501.44 331.42 497.44 342.54 494.38 351.42 491.44 368.42 488.44 375.94 488.44 380.6 487.23 399.92 487.23 421.42 489.22 428.42 490.44 445.42 497.44 455.42 502.44 462.4 506.83 469.88 515.46 474.42 523.44 476.42 528.44 464.72 529.56"/>
  <polyline class="cls-1" points="316.42 372.44 293.42 389.44 274.42 381.81 316.42 372.44"/>
  <polyline class="cls-1" points="293.42 389.44 331.42 485.44 336.42 494.88"/>
  <polyline class="cls-1" points="321.92 350.9 336.42 360.86 385.92 353.88"/>
  <polyline class="cls-1" points="336.42 360.86 359.42 471.6 364.14 489.2"/>
  <line class="cls-1" x1="397.42" y1="350.9" x2="454.09" y2="360.86"/>
  <polyline class="cls-1" points="421.42 489.22 425.42 472.44 454.09 360.86 468.12 352.53"/>
  <polyline class="cls-1" points="515.42 386.13 497.42 391.44 482.86 360.86"/>
  <polyline class="cls-1" points="448.8 499.13 454.09 487.23 497.42 391.44"/>
</svg>